<?xml version="1.0" standalone="no"?>
<!DOCTYPE svg PUBLIC "-//W3C//DTD SVG 20010904//EN"
 "http://www.w3.org/TR/2001/REC-SVG-20010904/DTD/svg10.dtd">
<svg version="1.0" xmlns="http://www.w3.org/2000/svg"
 width="260.000000pt" height="260.000000pt" viewBox="0 0 260.000000 260.000000"
 preserveAspectRatio="xMidYMid meet">
<metadata>
Created by potrace 1.11, written by Peter Selinger 2001-2013
</metadata>
<g transform="translate(0.000000,260.000000) scale(0.100000,-0.100000)"
fill="#000000" stroke="none">
<path d="M0 1300 l0 -1300 1300 0 1300 0 0 1300 0 1300 -1300 0 -1300 0 0
-1300z m890 879 c74 -12 266 -72 294 -92 17 -12 15 -20 -34 -138 -29 -68 -54
-126 -55 -127 -2 -2 -50 12 -107 32 -243 83 -405 70 -458 -39 -35 -73 -21
-136 44 -193 21 -18 110 -69 199 -114 295 -147 381 -225 423 -383 29 -108 10
-263 -43 -354 -57 -97 -180 -181 -318 -216 -175 -45 -423 -26 -618 48 l-57 22
0 157 c0 87 4 158 9 158 5 0 33 -11 62 -24 137 -60 249 -88 376 -94 117 -4
125 -3 175 21 65 32 88 67 88 137 0 101 -37 135 -274 254 -89 46 -182 96 -207
113 -69 48 -137 127 -172 201 -31 64 -32 72 -32 192 0 115 2 130 27 183 38 82
79 129 150 177 128 85 311 113 528 79z m1540 -149 l0 -140 -295 0 -295 0 0
-210 0 -210 275 0 275 0 0 -140 0 -140 -275 0 -275 0 0 -320 0 -320 -167 2
-168 3 -3 808 -2 807 465 0 465 0 0 -140z"/>
</g>
</svg>
